HIERARCHY
ROOT Hips
{
	OFFSET 0.000000 0.000000 0.000000
	CHANNELS 6 Xposition Yposition Zposition Zrotation Yrotation Xrotation 
	JOINT LHipJoint
	{
		OFFSET 0.000000 0.000000 0.000000
		CHANNELS 3 Zrotation Yrotation Xrotation
		JOINT LeftUpLeg
		{
			OFFSET 1.363060 -1.794630 0.839290
			CHANNELS 3 Zrotation Yrotation Xrotation
			JOINT LeftLeg
			{
				OFFSET 2.448110 -6.726130 0.000000
				CHANNELS 3 Zrotation Yrotation Xrotation
				JOINT LeftFoot
				{
					OFFSET 2.562200 -7.039590 0.000000
					CHANNELS 3 Zrotation Yrotation Xrotation
					JOINT LeftToeBase
					{
						OFFSET 0.157640 -0.433110 2.322550
						CHANNELS 3 Zrotation Yrotation Xrotation
						End Site
						{
							OFFSET 0.000000 0.000000 0.000000
						}
					}
				}
			}
		}
	}
	JOINT RHipJoint
	{
		OFFSET 0.000000 0.000000 0.000000
		CHANNELS 3 Zrotation Yrotation Xrotation
		JOINT RightUpLeg
		{
			OFFSET -1.305520 -1.794630 0.839290
			CHANNELS 3 Zrotation Yrotation Xrotation
			JOINT RightLeg
			{
				OFFSET -2.542530 -6.985550 0.000000
				CHANNELS 3 Zrotation Yrotation Xrotation
				JOINT RightFoot
				{
					OFFSET -2.568260 -7.056230 0.000000
					CHANNELS 3 Zrotation Yrotation Xrotation
					JOINT RightToeBase
					{
						OFFSET -0.164730 -0.452590 2.363150
						CHANNELS 3 Zrotation Yrotation Xrotation
						End Site
						{
							OFFSET 0.000000 0.000000 0.000000
						}
					}
				}
			}
		}
	}
}
MOTION
Frames: 14
Frame Time: 0.008333
26.832386 16.408799 4.347240 173.134432 -87.518071 -149.103720 -11.733682 3.485978 -0.850844 -4.648674 6.715367 0.526234 -1.408415 0.172527 11.291971 1.341492 9.943549 0.051023 1.263801 0.000000 -74.377000 8.057645 0.397911 4.802540 4.105333 9.143738 -56.116881 2.077739 -0.928963 19.560582 -0.548022 -3.509176 7.457501 -1.981400 0.000000 -35.031200
26.671870 16.416033 4.301081 -174.153107 -87.677447 -161.768955 -11.595523 3.459757 -0.860795 -4.025616 6.572001 0.262150 -1.250100 0.304255 12.594810 1.371677 10.263496 1.386479 1.532600 0.000000 -76.067399 8.153273 0.337785 4.754225 4.677626 9.492152 -56.218393 2.033208 -1.128475 21.026824 -0.565673 -3.425558 7.132193 -1.902200 0.000000 -34.605500
26.512291 16.426126 4.253888 -163.332570 -87.921355 -172.577734 -11.537202 3.385346 -0.878625 -3.425670 6.453444 -0.097025 -1.065215 0.422355 14.075523 1.397775 10.541479 2.831040 1.819201 0.000000 -77.281800 8.159936 0.194363 4.700462 5.226946 9.708815 -56.216768 2.014571 -1.311533 22.378662 -0.579180 -3.286278 6.548635 -1.790800 0.000000 -34.176701
26.353772 16.439045 4.206067 -153.719217 -88.192708 177.793558 -11.581211 3.290381 -0.898324 -2.854792 6.393447 -0.580290 -0.865070 0.536163 15.732567 1.424765 10.777388 4.363633 2.114900 0.000000 -77.899300 8.079396 0.002974 4.631904 5.770144 9.821834 -56.097842 2.022570 -1.467837 23.596429 -0.586215 -3.107270 5.748193 -1.660400 -0.000000 -33.646700
26.196409 16.454638 4.157381 -145.418536 -88.434622 169.466108 -11.703266 3.198745 -0.912094 -2.343170 6.379876 -1.195891 -0.662974 0.650752 17.543635 1.462695 11.011747 5.942981 2.417400 -0.000000 -77.750200 7.947643 -0.190881 4.544592 6.304288 9.850380 -55.870718 2.050980 -1.593291 24.672750 -0.585755 -2.896712 4.798184 -1.520600 0.000000 -33.091200
26.040845 16.472845 4.108149 -137.803002 -88.651387 161.819909 -11.873346 3.109939 -0.919230 -1.883156 6.408043 -1.946853 -0.464646 0.763358 19.500031 1.515040 11.257899 7.516419 2.720800 0.000000 -76.734300 7.791151 -0.374057 4.444459 6.835521 9.809136 -55.542443 2.096614 -1.688744 25.589670 -0.581903 -2.674622 3.756321 -1.381200 0.000000 -32.490300
25.887003 16.493537 4.058617 -130.485604 -88.850666 154.472996 -12.071595 3.020081 -0.919153 -1.477125 6.464984 -2.829475 -0.275441 0.870368 21.586330 1.583740 11.534726 9.019139 3.021100 -0.000000 -74.796400 7.624130 -0.541999 4.337022 7.359473 9.707731 -55.125519 2.155358 -1.755839 26.337400 -0.577431 -2.455758 2.683066 -1.249700 -0.000001 -31.857800
25.735285 16.516586 4.008832 -123.389397 -89.033935 147.354760 -12.280479 2.927670 -0.912281 -1.135754 6.536164 -3.833258 -0.102235 0.970108 23.779986 1.668879 11.863421 10.379692 3.316300 0.000000 -71.969000 7.458616 -0.690174 4.226249 7.866212 9.555278 -54.635402 2.222293 -1.796709 26.915861 -0.573204 -2.247321 1.634734 -1.129900 0.000001 -31.251099
25.586196 16.541926 3.959582 -115.850554 -89.207342 139.801619 -12.505038 2.825594 -0.901014 -0.842559 6.623803 -4.956892 0.051496 1.062790 26.071212 1.766012 12.237562 11.528476 3.596300 0.000000 -68.345800 7.284326 -0.827499 4.117177 8.361983 9.372984 -54.077414 2.296243 -1.811056 27.314470 -0.571432 -2.065895 0.652955 -1.027200 -0.000000 -30.602800
25.439844 16.569418 3.910442 -108.617667 -89.359550 132.563333 -12.716106 2.720689 -0.887962 -0.625139 6.705261 -6.171167 0.178468 1.152238 28.415196 1.873836 12.687619 12.419440 3.867200 0.000000 -64.221299 7.125533 -0.940268 4.008804 8.827604 9.164160 -53.468199 2.370691 -1.803579 27.554527 -0.569303 -1.900793 -0.224634 -0.938700 -0.000000 -30.050500
25.296426 16.599023 3.862289 -101.202555 -89.487158 125.152086 -12.923733 2.608298 -0.876619 -0.453755 6.790583 -7.476234 0.278433 1.242849 30.803830 1.985245 13.185530 13.008333 4.111900 -0.000000 -59.761900 6.968234 -1.039117 3.905477 9.278964 8.956765 -52.804808 2.446724 -1.773188 27.625473 -0.568738 -1.767587 -0.980041 -0.867900 -0.000000 -29.510300
25.156544 16.630608 3.814666 -94.410061 -89.588526 118.368236 -13.102801 2.492932 -0.870549 -0.346263 6.858921 -8.838574 0.352190 1.338122 33.192838 2.097948 13.743688 13.296617 4.333900 0.000000 -55.371800 6.833018 -1.117333 3.805162 9.700966 8.748791 -52.096028 2.520531 -1.726053 27.552011 -0.566785 -1.651476 -1.605527 -0.810000 0.000000 -29.076700
25.020214 16.664149 3.767654 -88.432168 -89.667866 112.398444 -13.248647 2.373900 -0.871855 -0.299771 6.899526 -10.236050 0.405184 1.439635 35.551655 2.209122 14.352391 13.301858 4.528801 0.000000 -51.357800 6.721578 -1.178830 3.707006 10.092110 8.543922 -51.341028 2.592080 -1.665458 27.345303 -0.562462 -1.546861 -2.108987 -0.762600 0.000000 -28.726000
24.887317 16.699479 3.721688 -83.126989 -89.718373 107.100734 -13.370041 2.248142 -0.882910 -0.285501 6.924323 -11.668439 0.441826 1.549586 37.875500 2.313108 14.964262 13.020135 4.671200 -0.000000 -47.768600 6.623579 -1.232466 3.613630 10.467485 8.360453 -50.532950 2.663614 -1.591102 26.999977 -0.557414 -1.463377 -2.496418 -0.726900 -0.000000 -28.463000
